<svg id="Capa_1" data-name="Capa 1" xmlns="http://www.w3.org/2000/svg" xmlns:xlink="http://www.w3.org/1999/xlink" viewBox="0 0 119 196.5"><defs><style>.cls-1{fill:url(#Degradado_sin_nombre_6);}.cls-2{fill:#fff;}</style><linearGradient id="Degradado_sin_nombre_6" x1="11" y1="142" x2="108" y2="142" gradientUnits="userSpaceOnUse"><stop offset="0" stop-color="#75c3c2"/><stop offset="1" stop-color="#457689"/></linearGradient></defs><path class="cls-1" d="M102,178,69.57,194.29a24,24,0,0,1-20.14,0L17,178c-3.78-1.89-6-4.75-6-7.76V97.47c0-5.51,7.18-10,16-10H92c8.86,0,16,4.46,16,10v72.79C108,173.27,105.81,176.13,102,178Z"/><path class="cls-2" d="M108.4,155.81,67,174.61a18.11,18.11,0,0,1-14.94,0L10.6,155.81A18.07,18.07,0,0,1,0,139.36V18.07A18.07,18.07,0,0,1,18.07,0h82.86A18.07,18.07,0,0,1,119,18.07V139.36A18.07,18.07,0,0,1,108.4,155.81Z"/></svg>